<?xml version="1.0" encoding="UTF-8"?>
<svg width="16px" height="16px" viewBox="0 0 16 16" version="1.1" xmlns="http://www.w3.org/2000/svg" xmlns:xlink="http://www.w3.org/1999/xlink">
    <!-- Generator: Sketch 53.2 (72643) - https://sketchapp.com -->
    <title>call-answer</title>
    <desc>Created with Sketch.</desc>
    <g id="Page-1" stroke="none" stroke-width="1" fill="none" fill-rule="evenodd">
        <g id="Detalle---v2" transform="translate(-560.000000, -256.000000)" fill="#dadada" fill-rule="nonzero">
            <g id="call-answer" transform="translate(560.000000, 256.000000)">
                <path d="M15.6447356,12.6474943 L13.1732414,10.1757241 C12.6809655,9.68542529 11.8657471,9.70032184 11.3563218,10.209931 L10.1111724,11.4548046 C10.0325057,11.4114483 9.95108046,11.3661609 9.86547126,11.3181149 C9.07917241,10.8824368 8.00298851,10.2852874 6.87052874,9.152 C5.73471264,8.01632184 5.13701149,6.93848276 4.7,6.15167816 C4.65388506,6.06832184 4.60970115,5.98795402 4.56606897,5.91163218 L5.40174713,5.0771954 L5.8125977,4.66583908 C6.3228046,4.15549425 6.33687356,3.34050575 5.84574713,2.84878161 L3.37425287,0.376735632 C2.88312644,-0.114298851 2.06754023,-0.0994022989 1.55733333,0.410942529 L0.860781609,1.11149425 L0.879816092,1.1303908 C0.646252874,1.42841379 0.45108046,1.77213793 0.30583908,2.1428046 C0.171954023,2.49563218 0.0885977011,2.83232184 0.0504827586,3.16970115 C-0.275862069,5.87517241 0.96045977,8.34777011 4.31567816,11.7030345 C8.9536092,16.3406437 12.6911724,15.9902989 12.8524138,15.9731954 C13.2035862,15.9312184 13.5401379,15.8473103 13.8821609,15.7144828 C14.2496092,15.5709425 14.5931034,15.376046 14.8909425,15.1429885 L14.9061609,15.1565057 L15.6118161,14.4655172 C16.1209655,13.9552644 16.1356322,13.14 15.6447356,12.6474943 Z" id="phone"></path>
            </g>
        </g>
    </g>
</svg>