<?xml version="1.0" encoding="UTF-8"?>
<svg width="20px" height="16px" viewBox="0 0 20 16" version="1.1" xmlns="http://www.w3.org/2000/svg" xmlns:xlink="http://www.w3.org/1999/xlink">
    <!-- Generator: Sketch 53.2 (72643) - https://sketchapp.com -->
    <title>message-closed-envelope</title>
    <desc>Created with Sketch.</desc>
    <g id="Page-1" stroke="none" stroke-width="1" fill="none" fill-rule="evenodd">
        <g id="Detalle---v2" transform="translate(-558.000000, -177.000000)" fill="#dadada" fill-rule="nonzero">
            <g id="message-closed-envelope" transform="translate(568.000000, 185.000000) scale(-1, 1) translate(-568.000000, -185.000000) translate(558.000000, 177.000000)">
                <path d="M17.6262244,1.15463195e-14 L2.37382791,1.15463195e-14 C1.06490944,1.15463195e-14 0,1.03574099 0,2.30880284 L0,13.0758125 C0,14.3488744 1.06490944,15.3846154 2.37382791,15.3846154 L17.6262244,15.3846154 C18.9351429,15.3846154 20,14.3488744 20,13.0758125 L20,2.30880284 C20,1.03574099 18.9351429,1.15463195e-14 17.6262244,1.15463195e-14 Z M17.6262244,13.346317 L2.37382791,13.346317 C2.18142611,13.346317 2.01268198,13.2199438 2.01268198,13.0758125 L2.01268198,3.73256902 L8.91093566,9.63086984 C9.05235831,9.75183616 9.23219852,9.81841535 9.4173774,9.81841535 L10.5824132,9.81846836 C10.7674874,9.81846836 10.9474323,9.75183616 11.0889073,9.63086984 L17.987475,3.73235698 L17.987475,13.0759186 C17.9873704,13.2199438 17.8185739,13.346317 17.6262244,13.346317 Z M10.0000262,7.79453537 L3.29061518,2.0382984 L16.7094372,2.0382984 L10.0000262,7.79453537 Z" id="envelope"></path>
            </g>
        </g>
    </g>
</svg>